# xmcd CD database file
#
# Track frame offsets:
#	150
#	19252
#	32352
#	44847
#	62582
#	80490
#	105577
#	122022
#	140025
#
# Disc length: 2175 seconds
#
# Revision: 2
# Processed by: cddbd v1.5.2PL0 Copyright (c) Steve Scherf et al.
# Submitted via: CDex 1.90
#
DISCID=77087d09
DTITLE=Bob Marley and The Wailers - Catch A Fire (The Released Album Island LP 9241) (Deluxe Edition) [2 of 2)
DYEAR=2002
DGENRE=Reggae
TTITLE0=Concrete Jungle
TTITLE1=Slave Driver
TTITLE2=400 Years
TTITLE3=Stop That Train
TTITLE4=Baby We've Got A Date (Rock It Baby)
TTITLE5=Stir It Up
TTITLE6=Kinky Reggae
TTITLE7=No More Trouble
TTITLE8=Midnight Ravers
EXTD=YEAR: 2002
EXTT0=
EXTT1=
EXTT2=
EXTT3=
EXTT4=
EXTT5=
EXTT6=
EXTT7=
EXTT8=
PLAYORDER=
